# xmcd
#
# Track frame offsets:
#	150
#	12642
#	27342
#	42652
#	56392
#	66150
#	80810
#	96870
#	109842
#	117897
#	122742
#	131847
#
# Disc length: 1913 seconds
#
# Revision: 0
# Processed by: cddbd v1.5.2PL0 Copyright (c) Steve Scherf et al.
# Submitted via: audiograbber 1.83.01
#
DISCID=ad07770c
DTITLE=CD-Compilation - Any Which Way You Can
DYEAR=1980
DGENRE=Country
TTITLE0=Ray Charles and Clint Eastwood - Beers To You
TTITLE1=Glen Campbell - Any Which Way You Can
TTITLE2=David Frizzel and Shelley West - You're The Reason God Made Oklahoma
TTITLE3=Fats Domino - Whiskey Haven
TTITLE4=Sondra Locke - One Too Many Women In Your Life
TTITLE5=Jim Stafford - Cow Patti
TTITLE6=Johnny Duncan - Acapulco
TTITLE7=Gene Watson - Any Way You Want Me
TTITLE8=The Texas Opera Company - Cotton Eyed Clint
TTITLE9=Cliff Crofford - Orangutan Hall Of Fame
TTITLE10=Sondra Locke - Too Loose
TTITLE11=John Durill - The Good Guys And The Bad Guys
EXTD=Soundtrack
EXTT0=
EXTT1=
EXTT2=
EXTT3=
EXTT4=
EXTT5=
EXTT6=
EXTT7=
EXTT8=
EXTT9=
EXTT10=
EXTT11=
PLAYORDER=
